<svg xmlns="http://www.w3.org/2000/svg" viewBox="0 0 900 1100"><rect x="28" y="28" width="844" height="1044" rx="42" fill="#0D0D0D" fill-opacity=".96" stroke="#6B3FA0" stroke-width="12"/><rect x="48" y="48" width="804" height="1004" rx="30" fill="none" stroke="#B870FF" stroke-width="2" opacity=".7"/><path d="M370 28h160l-28 30H398z" fill="#6B3FA0"/><path d="M450 20l-15 26h10v26h10V46h10z" fill="#63FF9B"/><g fill="none" stroke="#8E57CF" stroke-width="8"><path d="M28 170c60 0 75-45 75-95M872 170c-60 0-75-45-75-95M28 930c60 0 75 45 75 95M872 930c-60 0-75 45-75 95"/></g><g fill="#63FF9B"><circle cx="75" cy="112" r="6"/><circle cx="825" cy="112" r="6"/><circle cx="75" cy="988" r="6"/><circle cx="825" cy="988" r="6"/></g></svg>